<svg width="4" height="18" viewBox="0 0 4 18" fill="none" xmlns="http://www.w3.org/2000/svg">
<g id="Group 2609129">
<g id="Group 2609251">
<path id="Vector (Stroke)" fill-rule="evenodd" clip-rule="evenodd" d="M0.5 9C0.5 8.17157 1.17157 7.5 2 7.5C2.82843 7.5 3.5 8.17157 3.5 9C3.5 9.82843 2.82843 10.5 2 10.5C1.17157 10.5 0.5 9.82843 0.5 9Z" fill="#A0AAB8"/>
<path id="Vector (Stroke)_2" fill-rule="evenodd" clip-rule="evenodd" d="M0.5 2C0.5 1.17157 1.17157 0.5 2 0.5C2.82843 0.5 3.5 1.17157 3.5 2C3.5 2.82843 2.82843 3.5 2 3.5C1.17157 3.5 0.5 2.82843 0.5 2Z" fill="#A0AAB8"/>
<path id="Vector (Stroke)_3" fill-rule="evenodd" clip-rule="evenodd" d="M0.5 16C0.5 15.1716 1.17157 14.5 2 14.5C2.82843 14.5 3.5 15.1716 3.5 16C3.5 16.8284 2.82843 17.5 2 17.5C1.17157 17.5 0.5 16.8284 0.5 16Z" fill="#A0AAB8"/>
</g>
</g>
</svg>
